<svg xmlns="http://www.w3.org/2000/svg" xmlns:xlink="http://www.w3.org/1999/xlink" contentStyleType="text/css" height="854px" preserveAspectRatio="none" style="width:1847px;height:854px;background:#FFFFFF;" version="1.1" viewBox="0 0 1847 854" width="1847px" zoomAndPan="magnify"><defs/><g><!--class StudentBase--><g id="elem_StudentBase"><rect codeLine="1" fill="#F1F1F1" height="357.6406" id="StudentBase" rx="2.5" ry="2.5" style="stroke:#181818;stroke-width:0.5;" width="489.21" x="908.45" y="7"/><ellipse cx="1104.2039" cy="23" fill="#ADD1B2" rx="11" ry="11" style="stroke:#181818;stroke-width:1.0;"/><path d="M1107.1727,28.6406 Q1106.5945,28.9375 1105.9539,29.0781 Q1105.3133,29.2344 1104.6102,29.2344 Q1102.1102,29.2344 1100.782,27.5938 Q1099.4695,25.9375 1099.4695,22.8125 Q1099.4695,19.6875 1100.782,18.0313 Q1102.1102,16.375 1104.6102,16.375 Q1105.3133,16.375 1105.9539,16.5313 Q1106.6102,16.6875 1107.1727,16.9844 L1107.1727,19.7031 Q1106.5477,19.125 1105.9539,18.8594 Q1105.3602,18.5781 1104.7352,18.5781 Q1103.3914,18.5781 1102.7039,19.6563 Q1102.0164,20.7188 1102.0164,22.8125 Q1102.0164,24.9063 1102.7039,25.9844 Q1103.3914,27.0469 1104.7352,27.0469 Q1105.3602,27.0469 1105.9539,26.7813 Q1106.5477,26.5 1107.1727,25.9219 L1107.1727,28.6406 Z " fill="#000000"/><text fill="#000000" font-family="sans-serif" font-size="14" lengthAdjust="spacing" textLength="89.2021" x="1124.7039" y="27.8467">StudentBase</text><line style="stroke:#181818;stroke-width:0.5;" x1="909.45" x2="1396.66" y1="39" y2="39"/><rect fill="none" height="6" style="stroke:#C82930;stroke-width:1.0;" width="6" x="916.45" y="49.6484"/><text fill="#000000" font-family="sans-serif" font-size="14" lengthAdjust="spacing" textLength="63.7246" x="928.45" y="55.9951">id: String</text><rect fill="none" height="6" style="stroke:#C82930;stroke-width:1.0;" width="6" x="916.45" y="65.9453"/><text fill="#000000" font-family="sans-serif" font-size="14" lengthAdjust="spacing" textLength="69.2139" x="928.45" y="72.292">git: String</text><line style="stroke:#181818;stroke-width:0.5;" x1="909.45" x2="1396.66" y1="79.5938" y2="79.5938"/><ellipse cx="919.45" cy="93.2422" fill="#84BE84" rx="3" ry="3" style="stroke:#038048;stroke-width:1.0;"/><text fill="#000000" font-family="sans-serif" font-size="14" lengthAdjust="spacing" textLength="285.6807" x="928.45" y="96.5889">initialize(id: String = nil, git: String = nil)</text><ellipse cx="919.45" cy="109.5391" fill="#84BE84" rx="3" ry="3" style="stroke:#038048;stroke-width:1.0;"/><text fill="#000000" font-family="sans-serif" font-size="14" lengthAdjust="spacing" textLength="148.5586" x="928.45" y="112.8857">git=(new_val: String)</text><ellipse cx="919.45" cy="125.8359" fill="#84BE84" rx="3" ry="3" style="stroke:#038048;stroke-width:1.0;"/><text fill="#000000" font-family="sans-serif" font-size="14" lengthAdjust="spacing" textLength="110.0381" x="928.45" y="129.1826">to_hash(): Hash</text><ellipse cx="919.45" cy="142.1328" fill="#84BE84" rx="3" ry="3" style="stroke:#038048;stroke-width:1.0;"/><text fill="#000000" font-family="sans-serif" font-size="14" lengthAdjust="spacing" textLength="111.5488" x="928.45" y="145.4795">to_json(): String</text><ellipse cx="919.45" cy="158.4297" fill="#84BE84" rx="3" ry="3" style="stroke:#038048;stroke-width:1.0;"/><text fill="#000000" font-family="sans-serif" font-size="14" lengthAdjust="spacing" textLength="112.6152" x="928.45" y="161.7764">inspect(): String</text><ellipse cx="919.45" cy="174.7266" fill="#84BE84" rx="3" ry="3" style="stroke:#038048;stroke-width:1.0;"/><text fill="#000000" font-family="sans-serif" font-size="14" lengthAdjust="spacing" textLength="374.7871" x="928.45" y="178.0732">self.from_string(serialized_data: String): StudentBase</text><ellipse cx="919.45" cy="191.0234" fill="#84BE84" rx="3" ry="3" style="stroke:#038048;stroke-width:1.0;"/><text fill="#000000" font-family="sans-serif" font-size="14" lengthAdjust="spacing" textLength="117.7422" x="928.45" y="194.3701">valid?(): Boolean</text><ellipse cx="919.45" cy="207.3203" fill="#84BE84" rx="3" ry="3" style="stroke:#038048;stroke-width:1.0;"/><text fill="#000000" font-family="sans-serif" font-size="14" lengthAdjust="spacing" textLength="168.3486" x="928.45" y="210.667">has_contact?(): Boolean</text><ellipse cx="919.45" cy="223.6172" fill="#84BE84" rx="3" ry="3" style="stroke:#038048;stroke-width:1.0;"/><text fill="#000000" font-family="sans-serif" font-size="14" lengthAdjust="spacing" textLength="134.2236" x="928.45" y="226.9639">has_git?(): Boolean</text><ellipse cx="919.45" cy="239.9141" fill="#84BE84" rx="3" ry="3" style="stroke:#038048;stroke-width:1.0;"/><text fill="#000000" font-family="sans-serif" font-size="14" lengthAdjust="spacing" textLength="393.4219" x="928.45" y="243.2607">self.is_phone_number?(phone_number: String): Boolean</text><ellipse cx="919.45" cy="256.2109" fill="#84BE84" rx="3" ry="3" style="stroke:#038048;stroke-width:1.0;"/><text fill="#000000" font-family="sans-serif" font-size="14" lengthAdjust="spacing" textLength="259.7383" x="928.45" y="259.5576">self.is_email?(email: String): Boolean</text><ellipse cx="919.45" cy="272.5078" fill="#84BE84" rx="3" ry="3" style="stroke:#038048;stroke-width:1.0;"/><text fill="#000000" font-family="sans-serif" font-size="14" lengthAdjust="spacing" textLength="365.75" x="928.45" y="275.8545">self.is_tg_username?(tg_username: String): Boolean</text><ellipse cx="919.45" cy="288.8047" fill="#84BE84" rx="3" ry="3" style="stroke:#038048;stroke-width:1.0;"/><text fill="#000000" font-family="sans-serif" font-size="14" lengthAdjust="spacing" textLength="219.0508" x="928.45" y="292.1514">self.is_git?(git: String): Boolean</text><ellipse cx="919.45" cy="305.1016" fill="#84BE84" rx="3" ry="3" style="stroke:#038048;stroke-width:1.0;"/><text fill="#000000" font-family="sans-serif" font-size="14" lengthAdjust="spacing" textLength="242.9766" x="928.45" y="308.4482">self.is_name?(val: String): Boolean</text><ellipse cx="919.45" cy="321.3984" fill="#84BE84" rx="3" ry="3" style="stroke:#038048;stroke-width:1.0;"/><text fill="#000000" font-family="sans-serif" font-size="14" lengthAdjust="spacing" textLength="408.9668" x="928.45" y="324.7451">self.read_from_txt(file_path: String): Array&lt;StudentBase&gt;</text><ellipse cx="919.45" cy="337.6953" fill="#84BE84" rx="3" ry="3" style="stroke:#038048;stroke-width:1.0;"/><text fill="#000000" font-family="sans-serif" font-size="14" lengthAdjust="spacing" textLength="463.21" x="928.45" y="341.042">self.write_to_txt(file_path: String, students: Array&lt;StudentBase&gt;)</text><ellipse cx="919.45" cy="353.9922" fill="#84BE84" rx="3" ry="3" style="stroke:#038048;stroke-width:1.0;"/><text fill="#000000" font-family="sans-serif" font-size="14" lengthAdjust="spacing" textLength="114.2627" x="928.45" y="357.3389">contact(): String</text></g><!--class Student--><g id="elem_Student"><rect codeLine="23" fill="#F1F1F1" height="422.8281" id="Student" rx="2.5" ry="2.5" style="stroke:#181818;stroke-width:0.5;" width="1358.1055" x="7" y="424.64"/><ellipse cx="654.2471" cy="440.64" fill="#ADD1B2" rx="11" ry="11" style="stroke:#181818;stroke-width:1.0;"/><path d="M657.2158,446.2806 Q656.6377,446.5775 655.9971,446.7181 Q655.3564,446.8744 654.6533,446.8744 Q652.1533,446.8744 650.8252,445.2338 Q649.5127,443.5775 649.5127,440.4525 Q649.5127,437.3275 650.8252,435.6713 Q652.1533,434.015 654.6533,434.015 Q655.3564,434.015 655.9971,434.1713 Q656.6533,434.3275 657.2158,434.6244 L657.2158,437.3431 Q656.5908,436.765 655.9971,436.4994 Q655.4033,436.2181 654.7783,436.2181 Q653.4346,436.2181 652.7471,437.2963 Q652.0596,438.3588 652.0596,440.4525 Q652.0596,442.5463 652.7471,443.6244 Q653.4346,444.6869 654.7783,444.6869 Q655.4033,444.6869 655.9971,444.4213 Q656.5908,444.14 657.2158,443.5619 L657.2158,446.2806 Z " fill="#000000"/><text fill="#000000" font-family="sans-serif" font-size="14" lengthAdjust="spacing" textLength="55.1113" x="674.7471" y="445.4867">Student</text><line style="stroke:#181818;stroke-width:0.5;" x1="8" x2="1364.1055" y1="456.64" y2="456.64"/><rect fill="none" height="6" style="stroke:#C82930;stroke-width:1.0;" width="6" x="15" y="467.2884"/><text fill="#000000" font-family="sans-serif" font-size="14" lengthAdjust="spacing" textLength="94.7598" x="27" y="473.6351">phone: String</text><rect fill="none" height="6" style="stroke:#C82930;stroke-width:1.0;" width="6" x="15" y="483.5853"/><text fill="#000000" font-family="sans-serif" font-size="14" lengthAdjust="spacing" textLength="142.5635" x="27" y="489.932">tg_username: String</text><rect fill="none" height="6" style="stroke:#C82930;stroke-width:1.0;" width="6" x="15" y="499.8822"/><text fill="#000000" font-family="sans-serif" font-size="14" lengthAdjust="spacing" textLength="89.5576" x="27" y="506.2289">email: String</text><rect fill="none" height="6" style="stroke:#C82930;stroke-width:1.0;" width="6" x="15" y="516.1791"/><text fill="#000000" font-family="sans-serif" font-size="14" lengthAdjust="spacing" textLength="112.5742" x="27" y="522.5257">surname: String</text><rect fill="none" height="6" style="stroke:#C82930;stroke-width:1.0;" width="6" x="15" y="532.4759"/><text fill="#000000" font-family="sans-serif" font-size="14" lengthAdjust="spacing" textLength="90.6514" x="27" y="538.8226">name: String</text><rect fill="none" height="6" style="stroke:#C82930;stroke-width:1.0;" width="6" x="15" y="548.7728"/><text fill="#000000" font-family="sans-serif" font-size="14" lengthAdjust="spacing" textLength="130.6074" x="27" y="555.1195">patronymic: String</text><line style="stroke:#181818;stroke-width:0.5;" x1="8" x2="1364.1055" y1="562.4213" y2="562.4213"/><ellipse cx="18" cy="576.0697" fill="#84BE84" rx="3" ry="3" style="stroke:#038048;stroke-width:1.0;"/><text fill="#000000" font-family="sans-serif" font-size="14" lengthAdjust="spacing" textLength="1111.6465" x="27" y="579.4164">initialize(surname: String, name: String, patronymic: String, id: String = nil, phone: String = nil, tg_username: String = nil, email: String = nil, git: String = nil)</text><ellipse cx="18" cy="592.3666" fill="#84BE84" rx="3" ry="3" style="stroke:#038048;stroke-width:1.0;"/><text fill="#000000" font-family="sans-serif" font-size="14" lengthAdjust="spacing" textLength="1332.1055" x="27" y="595.7132">self.from_hash(id: String = nil, surname: String = nil, name: String = nil, patronymic: String = nil, phone: String = nil, tg_username: String = nil, email: String = nil, git: String = nil): Student</text><ellipse cx="18" cy="608.6634" fill="#84BE84" rx="3" ry="3" style="stroke:#038048;stroke-width:1.0;"/><text fill="#000000" font-family="sans-serif" font-size="14" lengthAdjust="spacing" textLength="114.2627" x="27" y="612.0101">contact(): String</text><ellipse cx="18" cy="624.9603" fill="#84BE84" rx="3" ry="3" style="stroke:#038048;stroke-width:1.0;"/><text fill="#000000" font-family="sans-serif" font-size="14" lengthAdjust="spacing" textLength="191.9189" x="27" y="628.307">surname=(new_val: String)</text><ellipse cx="18" cy="641.2572" fill="#84BE84" rx="3" ry="3" style="stroke:#038048;stroke-width:1.0;"/><text fill="#000000" font-family="sans-serif" font-size="14" lengthAdjust="spacing" textLength="169.9961" x="27" y="644.6039">name=(new_val: String)</text><ellipse cx="18" cy="657.5541" fill="#84BE84" rx="3" ry="3" style="stroke:#038048;stroke-width:1.0;"/><text fill="#000000" font-family="sans-serif" font-size="14" lengthAdjust="spacing" textLength="209.9521" x="27" y="660.9007">patronymic=(new_val: String)</text><ellipse cx="18" cy="673.8509" fill="#84BE84" rx="3" ry="3" style="stroke:#038048;stroke-width:1.0;"/><text fill="#000000" font-family="sans-serif" font-size="14" lengthAdjust="spacing" textLength="168.9023" x="27" y="677.1976">email=(new_val: String)</text><ellipse cx="18" cy="690.1478" fill="#84BE84" rx="3" ry="3" style="stroke:#038048;stroke-width:1.0;"/><text fill="#000000" font-family="sans-serif" font-size="14" lengthAdjust="spacing" textLength="174.1045" x="27" y="693.4945">phone=(new_val: String)</text><ellipse cx="18" cy="706.4447" fill="#84BE84" rx="3" ry="3" style="stroke:#038048;stroke-width:1.0;"/><text fill="#000000" font-family="sans-serif" font-size="14" lengthAdjust="spacing" textLength="221.9082" x="27" y="709.7914">tg_username=(new_val: String)</text><ellipse cx="18" cy="722.7416" fill="#84BE84" rx="3" ry="3" style="stroke:#038048;stroke-width:1.0;"/><text fill="#000000" font-family="sans-serif" font-size="14" lengthAdjust="spacing" textLength="204.5381" x="27" y="726.0882">write_to_txt(file_path: String)</text><ellipse cx="18" cy="739.0384" fill="#84BE84" rx="3" ry="3" style="stroke:#038048;stroke-width:1.0;"/><text fill="#000000" font-family="sans-serif" font-size="14" lengthAdjust="spacing" textLength="90.2207" x="27" y="742.3851">to_s(): String</text><ellipse cx="18" cy="755.3353" fill="#84BE84" rx="3" ry="3" style="stroke:#038048;stroke-width:1.0;"/><text fill="#000000" font-family="sans-serif" font-size="14" lengthAdjust="spacing" textLength="192.3018" x="27" y="758.682">==(other: Object): Boolean</text><ellipse cx="18" cy="771.6322" fill="#84BE84" rx="3" ry="3" style="stroke:#038048;stroke-width:1.0;"/><text fill="#000000" font-family="sans-serif" font-size="14" lengthAdjust="spacing" textLength="110.0381" x="27" y="774.9789">to_hash(): Hash</text><ellipse cx="18" cy="787.9291" fill="#84BE84" rx="3" ry="3" style="stroke:#038048;stroke-width:1.0;"/><text fill="#000000" font-family="sans-serif" font-size="14" lengthAdjust="spacing" textLength="329.1299" x="27" y="791.2757">self.from_json(serialized_data: String): Student</text><ellipse cx="18" cy="804.2259" fill="#84BE84" rx="3" ry="3" style="stroke:#038048;stroke-width:1.0;"/><text fill="#000000" font-family="sans-serif" font-size="14" lengthAdjust="spacing" textLength="340.6963" x="27" y="807.5726">self.from_string(serialized_data: String): Student</text><ellipse cx="18" cy="820.5228" fill="#84BE84" rx="3" ry="3" style="stroke:#038048;stroke-width:1.0;"/><text fill="#000000" font-family="sans-serif" font-size="14" lengthAdjust="spacing" textLength="117.7422" x="27" y="823.8695">valid?(): Boolean</text><ellipse cx="18" cy="836.8197" fill="#84BE84" rx="3" ry="3" style="stroke:#038048;stroke-width:1.0;"/><text fill="#000000" font-family="sans-serif" font-size="14" lengthAdjust="spacing" textLength="555.5361" x="27" y="840.1664">set_contacts(phone: String = nil, tg_username: String = nil, email: String = nil)</text></g><!--class StudentShort--><g id="elem_StudentShort"><rect codeLine="49" fill="#F1F1F1" height="145.7813" id="StudentShort" rx="2.5" ry="2.5" style="stroke:#181818;stroke-width:0.5;" width="440.415" x="1399.85" y="563.17"/><ellipse cx="1569.4667" cy="579.17" fill="#ADD1B2" rx="11" ry="11" style="stroke:#181818;stroke-width:1.0;"/><path d="M1572.4354,584.8106 Q1571.8573,585.1075 1571.2167,585.2481 Q1570.5761,585.4044 1569.8729,585.4044 Q1567.3729,585.4044 1566.0448,583.7638 Q1564.7323,582.1075 1564.7323,578.9825 Q1564.7323,575.8575 1566.0448,574.2013 Q1567.3729,572.545 1569.8729,572.545 Q1570.5761,572.545 1571.2167,572.7013 Q1571.8729,572.8575 1572.4354,573.1544 L1572.4354,575.8731 Q1571.8104,575.295 1571.2167,575.0294 Q1570.6229,574.7481 1569.9979,574.7481 Q1568.6542,574.7481 1567.9667,575.8263 Q1567.2792,576.8888 1567.2792,578.9825 Q1567.2792,581.0763 1567.9667,582.1544 Q1568.6542,583.2169 1569.9979,583.2169 Q1570.6229,583.2169 1571.2167,582.9513 Q1571.8104,582.67 1572.4354,582.0919 L1572.4354,584.8106 Z " fill="#000000"/><text fill="#000000" font-family="sans-serif" font-size="14" lengthAdjust="spacing" textLength="92.6816" x="1589.9667" y="584.0167">StudentShort</text><line style="stroke:#181818;stroke-width:0.5;" x1="1400.85" x2="1839.265" y1="595.17" y2="595.17"/><rect fill="none" height="6" style="stroke:#C82930;stroke-width:1.0;" width="6" x="1407.85" y="605.8184"/><text fill="#000000" font-family="sans-serif" font-size="14" lengthAdjust="spacing" textLength="68.332" x="1419.85" y="612.1651">fio: String</text><rect fill="none" height="6" style="stroke:#C82930;stroke-width:1.0;" width="6" x="1407.85" y="622.1153"/><text fill="#000000" font-family="sans-serif" font-size="14" lengthAdjust="spacing" textLength="103.3389" x="1419.85" y="628.462">contact: String</text><line style="stroke:#181818;stroke-width:0.5;" x1="1400.85" x2="1839.265" y1="635.7638" y2="635.7638"/><ellipse cx="1410.85" cy="649.4122" fill="#84BE84" rx="3" ry="3" style="stroke:#038048;stroke-width:1.0;"/><text fill="#000000" font-family="sans-serif" font-size="14" lengthAdjust="spacing" textLength="400.5859" x="1419.85" y="652.7589">initialize(id: String, fio: String, git: String, contact: String)</text><ellipse cx="1410.85" cy="665.7091" fill="#84BE84" rx="3" ry="3" style="stroke:#038048;stroke-width:1.0;"/><text fill="#000000" font-family="sans-serif" font-size="14" lengthAdjust="spacing" textLength="414.415" x="1419.85" y="669.0557">self.from_string(data: String, id: String = nil): StudentShort</text><ellipse cx="1410.85" cy="682.0059" fill="#84BE84" rx="3" ry="3" style="stroke:#038048;stroke-width:1.0;"/><text fill="#000000" font-family="sans-serif" font-size="14" lengthAdjust="spacing" textLength="110.0381" x="1419.85" y="685.3526">to_hash(): Hash</text><ellipse cx="1410.85" cy="698.3028" fill="#84BE84" rx="3" ry="3" style="stroke:#038048;stroke-width:1.0;"/><text fill="#000000" font-family="sans-serif" font-size="14" lengthAdjust="spacing" textLength="117.7422" x="1419.85" y="701.6495">valid?(): Boolean</text></g><!--reverse link StudentBase to Student--><g id="link_StudentBase_Student"><path codeLine="58" d="M954.4932,377.4037 C934.1332,396.9437 926.25,404.51 905.53,424.4 " fill="none" id="StudentBase-backto-Student" style="stroke:#181818;stroke-width:1.0;"/><polygon fill="none" points="967.48,364.94,950.3387,373.0748,958.6478,381.7326,967.48,364.94" style="stroke:#181818;stroke-width:1.0;"/></g><!--reverse link StudentBase to StudentShort--><g id="link_StudentBase_StudentShort"><path codeLine="59" d="M1351.6167,377.4038 C1423.6467,446.5338 1489.04,509.31 1544.75,562.77 " fill="none" id="StudentBase-backto-StudentShort" style="stroke:#181818;stroke-width:1.0;"/><polygon fill="none" points="1338.63,364.94,1347.4621,381.7327,1355.7713,373.0749,1338.63,364.94" style="stroke:#181818;stroke-width:1.0;"/></g><!--SRC=[jLKzRy8m4Dtv5HwD21LIDmH5HHswTK2TBPCOOfJOo3QbzEE_rrm8SMARI5KxHNvtPz-xZvUqe5gZbJbaJ9WbrGnz3X0Q8vvDBQgusC9nourp7Y4kkE6qu1yCDvveZWGl4jUvWeOGO-4v5kn8tcXHsokBaIIdEiV3ANgstnhRQIdEMEjTlMUfwQ2Q5PkxZP8bqG1YpLILNKOoQkZrjQdB549jBZnRdEzRIbamAW2rsP1K2aDJ4xHPAXuEIN1DzhaKZ8X3kMPgWTsJaqOea9MK5miCdnvNioK7or7GaYsmS-W9WxITxaJSgclTBWNy5ACPWPgRTuCtl61aJqtkX3mgHKypf-0FJVHHSSE8xN4mE46wYjAXMwgPkRJ7cOJlmI1rf_aooT21rZ072WPug_A0w8FlvG4sSoN5gUHfR4KwroIeVV8lI92_LIqUDHYWKfjQR7fMiraWs4F_yGw36WvXFfj_Pd1TwiXS0C4g_uZ-t30rR28Ea6Gi-4mufdaDxuZ7xHsvAgVkK9szZYQJ-wU7-ekboS_QyxBUMUNih798UPjX007krT9VIl0D-TNCrFAhyHzCpT3JXbKkLIqG6ovR-tnvkVz_bxYXhSbCkfSCmqLoA-FlV5ChI3VQCB-8bgxxIvzzZSVNiiSCyCOF]--></g></svg>